<?xml version="1.0" encoding="utf-8"?>
<!-- Generator: Adobe Illustrator 25.0.1, SVG Export Plug-In . SVG Version: 6.00 Build 0)  -->
<svg version="1.1" id="Layer_1" xmlns="http://www.w3.org/2000/svg" xmlns:xlink="http://www.w3.org/1999/xlink" x="0px" y="0px"
	 viewBox="0 0 216 62" style="enable-background:new 0 0 216 62;" xml:space="preserve">
<style type="text/css">
	.st0{fill:#83909B;}
	.st1{fill:#FFFFFF;}
	.st2{fill:#9471EA;}
	.st3{fill:#FFBA57;}
	.st4{fill:#75C0F9;}
	.st5{fill:#FFA6A4;}
	.st6{fill:#0090D8;}
	.st7{fill:#55CE91;}
	.st8{fill:#3BC9EA;}
	.st9{fill:#67C1F9;}
	.st10{fill:#F97B78;}
	.st11{fill:#4EC68D;}
	.st12{fill:#BEAEFF;}
</style>
<g>
	<g>
		<path class="st0" d="M186.35,60.02c-0.63,0.01-1.18-0.49-1.19-1.16c-0.01-0.63,0.53-1.17,1.16-1.18c0.63-0.01,1.18,0.51,1.19,1.14
			C187.52,59.49,186.98,60.01,186.35,60.02z"/>
		<path class="st0" d="M193.77,53.88c-0.14,0-0.28-0.04-0.42-0.13c-0.33-0.21-0.59-0.35-0.81-0.41c-0.22-0.07-0.53-0.1-0.91-0.1
			c-0.65,0.01-1.16,0.25-1.52,0.73c-0.35,0.44-0.51,1.01-0.5,1.74c0.01,0.57,0.23,1.08,0.66,1.54c0.44,0.5,0.94,0.75,1.51,0.74
			c0.45-0.01,0.87-0.07,1.25-0.2c0.14-0.05,0.26-0.08,0.34-0.08c0.45-0.01,0.84,0.33,0.85,0.84c0.01,0.48-0.31,0.79-0.96,0.96
			c-0.32,0.08-0.83,0.12-1.53,0.13c-1.07,0.02-1.97-0.34-2.71-1.06c-0.77-0.75-1.15-1.7-1.17-2.83c-0.02-1.1,0.33-2.05,1.03-2.86
			c0.73-0.86,1.64-1.31,2.74-1.32c1.1-0.02,1.99,0.27,2.63,0.85c0.22,0.2,0.33,0.41,0.33,0.66
			C194.57,53.51,194.2,53.87,193.77,53.88z"/>
		<path class="st0" d="M201.05,58.37c-0.69,0.77-1.58,1.17-2.65,1.18c-1.07,0.02-1.97-0.36-2.69-1.11
			c-0.71-0.75-1.08-1.72-1.09-2.88c-0.02-1.18,0.33-2.16,1.01-2.92c0.7-0.78,1.59-1.18,2.66-1.2c1.07-0.02,1.97,0.36,2.68,1.12
			c0.72,0.75,1.09,1.72,1.11,2.89C202.09,56.63,201.75,57.61,201.05,58.37z M199.74,53.78c-0.36-0.47-0.85-0.72-1.43-0.71
			c-0.59,0.01-1.06,0.26-1.43,0.75c-0.35,0.48-0.53,1.08-0.52,1.79c0.02,1.42,0.82,2.36,2.01,2.34c1.19-0.02,1.97-0.97,1.95-2.4
			C200.32,54.84,200.12,54.25,199.74,53.78z"/>
		<path class="st0" d="M213,58.44c0.01,0.51-0.36,0.92-0.85,0.93c-0.5,0.01-0.87-0.39-0.88-0.9l-0.05-3.4
			c-0.02-1.49-0.4-2.08-1.38-2.07c-0.43,0.01-0.85,0.21-1.25,0.62c0.05,0.29,0.07,0.79,0.08,1.49l0.05,3.4
			c0.01,0.51-0.36,0.92-0.85,0.93c-0.5,0.01-0.89-0.39-0.9-0.9l-0.05-3.4c-0.01-0.79-0.1-1.33-0.26-1.61
			c-0.21-0.32-0.58-0.47-1.14-0.46c-0.51,0.01-0.91,0.18-1.23,0.54l0.07,4.94c0.01,0.51-0.37,0.95-0.87,0.96
			c-0.5,0.01-0.89-0.42-0.9-0.93l-0.09-6.22c-0.01-0.62,0.3-0.93,0.92-0.94c0.39-0.01,0.64,0.16,0.73,0.5
			c0.17-0.14,0.43-0.27,0.75-0.38c0.29-0.1,0.54-0.15,0.71-0.15c0.99-0.01,1.74,0.24,2.26,0.76c0.53-0.52,1.18-0.79,1.91-0.8
			c2.06-0.03,3.11,1.16,3.15,3.56L213,58.44z"/>
	</g>
	<path class="st1" d="M28.71,12.09l1.95,0.17c1.85,0.06,3.67,0.56,5.45,1.5c0.2,0.19,0.29,0.44,0.25,0.78
		c-0.32,0.43-0.65,1.02-1,1.78l-0.31,0.64l-0.31,0.56l-1.09,2.03c-0.26,0.37-0.53,0.85-0.81,1.45l-1.11,2.11
		c-8.09,0.13-13.69,3.55-16.8,10.27c-1.93,5.3-1.18,10.53,2.25,15.69c3.08,2.91,7,0.99,11.77-5.76l0.39,1.31l0.14,0.28l1.61,5.62
		l0.14,0.36l0.06,0.33l0.39,1.31l0.17,0.28l0.31,1.2c-4.32,4.25-9.41,6.08-15.27,5.51C10.56,58.85,6.17,55.22,3.7,48.62l-0.19-0.5
		L3.03,45.7c-0.3-6.34,1.47-12.58,5.29-18.72c3.41-6.19,8.73-10.86,15.94-13.99l2.42-0.64l1.11-0.17
		C28.07,12.21,28.38,12.19,28.71,12.09z"/>
	<path class="st2" d="M29.39,12.09l1.95,0.17c1.85,0.06,3.67,0.56,5.45,1.5c0.2,0.19,0.29,0.44,0.25,0.78
		c-0.32,0.43-0.65,1.02-1,1.78l-0.31,0.64l-0.31,0.56l-1.09,2.03c-0.26,0.37-0.53,0.85-0.81,1.45l-1.11,2.11
		c-8.09,0.13-13.69,3.55-16.8,10.27c-1.93,5.3-1.18,10.53,2.25,15.69c3.08,2.91,7,0.99,11.77-5.76l0.39,1.31l0.14,0.28l1.61,5.62
		l0.14,0.36l0.06,0.33l0.39,1.31l0.17,0.28l0.31,1.2c-4.32,4.25-9.41,6.08-15.27,5.51c-6.32-0.65-10.72-4.28-13.19-10.88l-0.19-0.5
		L3.71,45.7C3.42,39.36,5.18,33.12,9,26.98c3.41-6.19,8.73-10.86,15.94-13.99l2.42-0.64l1.11-0.17
		C28.75,12.21,29.06,12.19,29.39,12.09z"/>
	<path class="st1" d="M35.91,15.89l1.06-0.14l0.31,3.89c-0.02,0.3,0,0.68,0.06,1.14l0.14,1.84l-0.03,0.44l0.14,1.14l-0.03,0.44
		l0.28,2.81c-0.04,0.61,0,1.35,0.11,2.23l0.06,0.61l-0.03,0.44l0.08,0.7l0.11,1.5c10.26-5.71,15.41-3.44,15.47,6.82l0.03,0.78
		c-0.09,0.26-0.11,0.57-0.06,0.92l-0.06,0.25c-0.06,0.37-0.1,0.88-0.14,1.53l-0.19,1c-0.02,0.43-0.15,1.21-0.39,2.36l-0.17,0.64
		l-0.31,1.56c-0.06,0.43-0.15,0.79-0.28,1.08c-0.02,0.3-0.08,0.63-0.19,1l-0.22,0.92c-0.11,0.43-0.23,0.8-0.36,1.11
		c-0.02,0.24-0.07,0.53-0.17,0.88c-0.09,0.34-0.24,0.79-0.44,1.35l-6.48,0.78c0.11-0.37,0.31-0.81,0.58-1.31l2.17-5.68l0.17-0.56
		l0.17-0.83c0.17-0.43,0.27-0.91,0.31-1.45l0.28-1.72l-0.03-0.81c0.02-0.78-0.01-1.46-0.08-2.03c-0.2-0.87-0.61-1.77-1.22-2.7
		c-0.63-0.69-1.47-1.21-2.5-1.56c-0.76,0.52-1.44,1.22-2.03,2.11c-1.35,2.89-2.01,6.23-1.97,10.02c-0.06,0.43-0.07,0.96-0.06,1.61
		v0.61c-0.04,0.54-0.04,0.98,0,1.34c-0.06,0.07-0.07,0.49-0.03,1.25l0.03,0.81c-0.54,0.13-1.22,0.19-2.03,0.17l-0.58-0.03
		c-0.48,0.06-0.89,0.07-1.22,0.06l-2.2,0.11l-0.53-4.12c0.07-0.43,0.05-0.93-0.08-1.5c-0.06-0.35-0.08-0.77-0.08-1.25l-0.19-1.75
		l0.03-0.25l-0.22-1.95v-0.53l-0.19-1.75c0.04-0.59-0.03-1.33-0.19-2.2c0.04-0.19,0.04-0.42,0-0.7c-0.11-0.46-0.16-1.03-0.14-1.7
		l-0.25-2.09l0.06-0.28l-0.19-1.47c-0.02-0.59-0.07-1.33-0.17-2.2v-0.64l-0.17-1.31c-0.06-0.41-0.09-0.91-0.11-1.5l-0.14-1.14
		c-0.02-0.59-0.08-1.33-0.19-2.2l-0.06-1.22c-0.06-0.46-0.1-1.05-0.14-1.75l-0.19-1.59v-0.72l-0.17-1.39v-0.72l0.7-0.17l0.25-0.11
		c0.37-0.06,0.8-0.17,1.28-0.33l0.47-0.14l1.28-0.33C35.15,16.19,35.59,16.04,35.91,15.89z"/>
	<path class="st3" d="M36.59,16.57l1.06-0.14l0.31,3.89c-0.02,0.3,0,0.68,0.06,1.14l0.14,1.84l-0.03,0.44l0.14,1.14l-0.03,0.44
		l0.28,2.81c-0.04,0.61,0,1.35,0.11,2.23l0.06,0.61l-0.03,0.44l0.08,0.7l0.11,1.5c10.26-5.71,15.41-3.44,15.47,6.82l0.03,0.78
		c-0.09,0.26-0.11,0.57-0.06,0.92l-0.06,0.25c-0.06,0.37-0.1,0.88-0.14,1.53l-0.19,1c-0.02,0.43-0.15,1.21-0.39,2.36l-0.17,0.64
		l-0.31,1.56c-0.06,0.43-0.15,0.79-0.28,1.08c-0.02,0.3-0.08,0.63-0.19,1l-0.22,0.92c-0.11,0.43-0.23,0.8-0.36,1.11
		c-0.02,0.24-0.07,0.53-0.17,0.88c-0.09,0.34-0.24,0.79-0.44,1.35l-6.48,0.78c0.11-0.37,0.31-0.81,0.58-1.31l2.17-5.68l0.17-0.56
		l0.17-0.83c0.17-0.43,0.27-0.91,0.31-1.45l0.28-1.72l-0.03-0.81c0.02-0.78-0.01-1.46-0.08-2.03c-0.2-0.87-0.61-1.77-1.22-2.7
		c-0.63-0.69-1.47-1.21-2.5-1.56c-0.76,0.52-1.44,1.22-2.03,2.11c-1.35,2.89-2.01,6.23-1.97,10.02c-0.06,0.43-0.07,0.96-0.06,1.61
		v0.61c-0.04,0.54-0.04,0.98,0,1.34c-0.06,0.07-0.07,0.49-0.03,1.25l0.03,0.81c-0.54,0.13-1.22,0.19-2.03,0.17l-0.58-0.03
		c-0.48,0.06-0.89,0.07-1.22,0.06l-2.2,0.11l-0.53-4.12c0.07-0.43,0.05-0.93-0.08-1.5c-0.06-0.35-0.08-0.77-0.08-1.25l-0.19-1.75
		l0.03-0.25l-0.22-1.95v-0.53l-0.19-1.75c0.04-0.59-0.03-1.33-0.19-2.2c0.04-0.19,0.04-0.42,0-0.7c-0.11-0.46-0.16-1.03-0.14-1.7
		l-0.25-2.09l0.06-0.28l-0.19-1.47c-0.02-0.59-0.07-1.33-0.17-2.2v-0.64l-0.17-1.31c-0.06-0.41-0.09-0.91-0.11-1.5l-0.14-1.14
		c-0.02-0.59-0.08-1.33-0.19-2.2l-0.06-1.22c-0.06-0.46-0.1-1.05-0.14-1.75l-0.19-1.59v-0.72l-0.17-1.39V18.1l0.7-0.17l0.25-0.11
		c0.37-0.06,0.8-0.17,1.28-0.33l0.47-0.14l1.28-0.33C35.83,16.87,36.27,16.72,36.59,16.57z"/>
	<path class="st1" d="M56.91,26.25c0.31,0.04,0.73,0.03,1.24-0.03c13.94,0.88,17.85,7.82,11.74,20.81c-0.15,0.3-0.29,0.65-0.42,1.07
		c1.07,3.62,3.39,5.43,6.99,5.43c-0.11,0.42-0.3,0.9-0.56,1.47l-0.99,1.94l-0.28,0.61l-0.36,0.77c-3.56-0.01-6.42-1.63-8.58-4.86
		c-2.14,1.58-4.64,2.05-7.49,1.41c-3.07-0.84-5.38-2.89-6.92-6.15c-1.54-4.25-0.62-8.01,2.75-11.28c3.53-2.31,7.21-2.19,11.04,0.36
		l0.27-0.53c0.9-3.92-1.35-5.99-6.74-6.21l-1-0.05l-0.18,0.09l-0.58-0.08l-0.56,0.01l-0.66,0.11l-0.65,0l-0.37,0.03l1.03-2.19
		l0.13-0.35l0.39-0.79l0.16-0.34L56.91,26.25z M64.46,43.74c-0.11-2-1.17-3.32-3.2-3.97c-2.65,0.39-3.93,2.02-3.83,4.87
		c0.53,2.75,2.14,3.74,4.85,2.98C63.58,46.76,64.3,45.46,64.46,43.74z"/>
	<path class="st4" d="M57.59,26.25c0.31,0.04,0.73,0.03,1.24-0.03c13.94,0.88,17.85,7.82,11.74,20.81c-0.15,0.3-0.29,0.65-0.42,1.07
		c1.07,3.62,3.39,5.43,6.99,5.43c-0.11,0.42-0.3,0.9-0.56,1.47l-0.99,1.94l-0.28,0.61l-0.36,0.77c-3.56-0.01-6.42-1.63-8.58-4.86
		c-2.14,1.58-4.64,2.05-7.49,1.41c-3.07-0.84-5.38-2.89-6.92-6.15c-1.54-4.25-0.62-8.01,2.75-11.28c3.53-2.31,7.21-2.19,11.04,0.36
		l0.27-0.53c0.9-3.92-1.35-5.99-6.74-6.21l-1-0.05l-0.18,0.09l-0.58-0.08l-0.56,0.01l-0.66,0.11l-0.65,0l-0.37,0.03l1.03-2.19
		l0.13-0.35l0.39-0.79l0.16-0.34L57.59,26.25z M65.14,43.74c-0.11-2-1.17-3.32-3.2-3.97c-2.65,0.39-3.93,2.02-3.83,4.87
		c0.53,2.75,2.14,3.74,4.85,2.98C64.26,46.76,64.99,45.46,65.14,43.74z"/>
	<path class="st1" d="M68.34,9.82c0.5-0.15,1.15-0.23,1.95-0.25l0.25-0.06h0.78c0.33-0.02,0.71-0.06,1.11-0.14h0.31l1.34-0.14
		l0.33,0.03c0.32-0.07,0.66-0.09,1.03-0.06l1.73-0.22h0.39l0.5-0.03c0.11,0.57,0.18,1.26,0.19,2.06v0.89l0.03,0.39l0.06,2.17v0.39
		v0.39v0.42c-0.02,0.37-0.01,0.8,0.03,1.28c-0.04,0.32-0.04,0.69,0,1.11c-0.06,0.5-0.04,1.08,0.06,1.75c0,0.28,0,0.55,0,0.81
		c0.04,0.37,0.03,0.81-0.03,1.31c0.06,0.24,0.06,0.53,0.03,0.86c0.07,0.35,0.08,0.78,0.03,1.28l0.06,1.84l0.03,0.47l-0.06,0.89
		c0.07,0.37,0.08,0.77,0.03,1.2c0.02,0.33,0.05,0.6,0.08,0.81c-0.04,0.06-0.06,0.15-0.06,0.28c0,0.13,0.01,0.25,0.03,0.35
		c0.02,0.1,0.02,0.22,0,0.36c-0.02,0.14-0.01,0.31,0.03,0.51c-0.04,0.56-0.03,1.25,0.03,2.09v0.33v0.39v1.06l0.06,0.31l0.03,2
		c-0.02,0.71,0,1.29,0.06,1.75v0.39c0.02,0.37,0,0.81-0.06,1.31l0.06,0.64v0.31c-0.02,0.48,0,0.83,0.06,1.03v1.95l0.03,0.47
		l0.03,1.59l-0.03,0.25l0.06,1.11c0,0.26,0,0.46,0.01,0.6c0.01,0.14,0,0.29-0.01,0.46c-0.02,0.17-0.01,0.35,0.03,0.56v0.39
		l0.03,1.61l0.03,0.47l-0.06,0.89v0.47l0.06,0.22l0.03,3.53l0.06,0.64l-1.14,0.25c-0.39-0.04-0.84-0.03-1.36,0.03l-1.59,0.11
		l-0.22,0.03l-0.39-1.75l-0.08-0.86l-0.22-1.72l-0.06-0.31v-0.33l-0.14-0.67l-0.11-0.86c-0.07-0.37-0.11-0.8-0.11-1.28
		c-0.11-0.3-0.16-0.66-0.14-1.09c-0.11-0.52-0.19-1.17-0.25-1.95l-0.11-0.56l-0.14-1l-0.42-3.45c-0.07-0.32-0.1-0.55-0.08-0.7
		l-0.19-0.95l0.03-0.22c-0.06-0.32-0.1-0.69-0.14-1.11l-0.06-0.22c-0.09-0.41-0.15-0.93-0.17-1.56c-0.09-0.41-0.18-0.93-0.25-1.56
		l0.03-0.25c-0.09-0.41-0.18-0.93-0.25-1.56v-0.39l-0.14-0.7c-0.07-0.57-0.16-1.21-0.25-1.89l-0.08-0.7
		c-0.11-0.78-0.19-1.46-0.25-2.03l-0.11-0.47l0.03-0.22l-0.11-0.64l0.03-0.22c-0.09-0.43-0.19-1-0.31-1.72l-0.06-0.61l-0.17-1.25
		l-0.06-0.64l-0.19-1.25c-0.02-0.37-0.07-0.78-0.17-1.22l0.03-0.19l-0.17-0.83l0.03-0.25l-0.17-0.7l-0.06-0.7l-0.03-0.47l-0.17-0.78
		c-0.06-0.57-0.1-1.08-0.14-1.5L68.9,14.3c-0.02-0.54-0.1-1.2-0.25-1.97v-0.31c-0.07-0.57-0.17-1.15-0.28-1.72L68.34,9.82z"/>
	<path class="st5" d="M69.02,9.82c0.5-0.15,1.15-0.23,1.95-0.25l0.25-0.06H72c0.33-0.02,0.71-0.06,1.11-0.14h0.31l1.34-0.14
		l0.33,0.03c0.32-0.07,0.66-0.09,1.03-0.06l1.73-0.22h0.39l0.5-0.03c0.11,0.57,0.18,1.26,0.19,2.06v0.89l0.03,0.39l0.06,2.17v0.39
		v0.39v0.42c-0.02,0.37-0.01,0.8,0.03,1.28c-0.04,0.32-0.04,0.69,0,1.11c-0.06,0.5-0.04,1.08,0.06,1.75c0,0.28,0,0.55,0,0.81
		c0.04,0.37,0.03,0.81-0.03,1.31c0.06,0.24,0.06,0.53,0.03,0.86c0.07,0.35,0.08,0.78,0.03,1.28l0.06,1.84l0.03,0.47l-0.06,0.89
		c0.07,0.37,0.08,0.77,0.03,1.2c0.02,0.33,0.05,0.6,0.08,0.81c-0.04,0.06-0.06,0.15-0.06,0.28c0,0.13,0.01,0.25,0.03,0.35
		c0.02,0.1,0.02,0.22,0,0.36c-0.02,0.14-0.01,0.31,0.03,0.51c-0.04,0.56-0.03,1.25,0.03,2.09v0.33v0.39v1.06l0.06,0.31l0.03,2
		c-0.02,0.71,0,1.29,0.06,1.75v0.39c0.02,0.37,0,0.81-0.06,1.31l0.06,0.64v0.31c-0.02,0.48,0,0.83,0.06,1.03v1.95l0.03,0.47
		l0.03,1.59l-0.03,0.25l0.06,1.11c0,0.26,0,0.46,0.01,0.6c0.01,0.14,0,0.29-0.01,0.46c-0.02,0.17-0.01,0.35,0.03,0.56v0.39
		l0.03,1.61l0.03,0.47l-0.06,0.89v0.47l0.06,0.22l0.03,3.53l0.06,0.64l-1.14,0.25c-0.39-0.04-0.84-0.03-1.36,0.03l-1.59,0.11
		l-0.22,0.03l-0.39-1.75l-0.08-0.86l-0.22-1.72l-0.06-0.31v-0.33l-0.14-0.67l-0.11-0.86c-0.07-0.37-0.11-0.8-0.11-1.28
		c-0.11-0.3-0.16-0.66-0.14-1.09c-0.11-0.52-0.19-1.17-0.25-1.95l-0.11-0.56l-0.14-1l-0.42-3.45c-0.07-0.32-0.1-0.55-0.08-0.7
		l-0.19-0.95L73,40.32c-0.06-0.32-0.1-0.69-0.14-1.11l-0.06-0.22c-0.09-0.41-0.15-0.93-0.17-1.56c-0.09-0.41-0.18-0.93-0.25-1.56
		l0.03-0.25c-0.09-0.41-0.18-0.93-0.25-1.56v-0.39l-0.14-0.7c-0.07-0.57-0.16-1.21-0.25-1.89l-0.08-0.7
		c-0.11-0.78-0.19-1.46-0.25-2.03l-0.11-0.47l0.03-0.22l-0.11-0.64l0.03-0.22c-0.09-0.43-0.19-1-0.31-1.72l-0.06-0.61l-0.17-1.25
		l-0.06-0.64l-0.19-1.25c-0.02-0.37-0.07-0.78-0.17-1.22l0.03-0.19l-0.17-0.83l0.03-0.25l-0.17-0.7l-0.06-0.7l-0.03-0.47l-0.17-0.78
		c-0.06-0.57-0.1-1.08-0.14-1.5l-0.08-0.36c-0.02-0.54-0.1-1.2-0.25-1.97v-0.31c-0.07-0.57-0.17-1.15-0.28-1.72L69.02,9.82z"/>
	<path class="st1" d="M84.32,1.98l2.44,0.76c0.18,0.11,0.4,0.21,0.68,0.3c0.27,0.09,0.54,0.2,0.81,0.34l0.82,0.26l0.43,0.22
		l1.12,0.35l0.12,0.09l2.42,0.84c0.36,0.23,0.79,0.39,1.3,0.49l0.96,0.39l-0.62,2.17l0.01,0.24l-0.89,3.13l-0.01,0.32l-0.39,1.25
		l-0.09,0.47l-0.41,1.33l-0.09,0.56l-0.84,2.97c0.04,0.07,0.03,0.18-0.01,0.32l-2.66,9.81l-0.02,0.34l-0.87,2.96l-0.1,0.61l-0.85,3
		l0.01,0.24l-0.44,1.41l-0.05,0.63l3.86-2.2l0.3-0.23l1.07-0.54l0.41-0.28c0.09-0.09,0.32-0.21,0.7-0.36
		c0.1-0.03,0.23-0.08,0.36-0.18c0.14-0.09,0.28-0.19,0.43-0.3l1.05-0.57c0.3-0.22,0.7-0.44,1.2-0.67c0.61-0.41,1.17-0.72,1.66-0.94
		c0.27-0.19,0.51-0.33,0.71-0.42c0.38-0.15,0.77-0.39,1.18-0.71l0.46-0.18l-0.51,2.2l0.01,0.24l-0.23,0.74l-0.02,0.26l-0.67,2.7
		c-0.02,0.26-0.1,0.59-0.22,0.98l-0.15,0.68l-2.97,1.2l-0.36,0.12c-0.11,0.03-0.32,0.12-0.65,0.29c-0.07,0.04-0.2,0.07-0.38,0.11
		l-3.35,1.4l-0.18,1.4c0.22,0.28,0.43,0.65,0.62,1.1l0.14,0.1l0.48,0.97l0.19,0.23l0.4,0.77l0.23,0.3l0.93,1.69l0.28,0.41l1.64,2.87
		l0.17,0.2l1.19,2.18l0.14,0.1l0.28,0.58l0.28,0.41c0.06,0.19,0.06,0.36,0.02,0.5l-1.01,0.33l-0.46,0.18l-0.16,0.04l-0.93,0.38
		l-0.36,0.12l-1.55,0.48c-0.07,0.1-0.25,0.18-0.54,0.24l-0.37,0.15l-0.39,0.11l-0.52,0.16l-0.67,0.29l-0.24,0.01l-0.27-0.99
		l-0.21-0.65l-0.09-0.17l-0.43-1.51l-0.18-0.46l-0.11-0.38l-0.43-1.51c-0.23-0.5-0.38-0.98-0.45-1.45l-0.18-0.44l-0.76-2.51
		l-0.18-0.46l-0.94-3.24l-0.15-0.28l-0.61-0.1c-0.19,0.43-0.37,0.99-0.53,1.7l-0.25,0.8c-0.02,0.38-0.15,0.84-0.37,1.37l-0.05,0.45
		l-0.49,1.57l-0.04,0.4l-0.41,1.33l0.04,0.16l-0.46,1.49l-0.06,0.48l-0.41,1.33l0,0.18l-0.53,1.7l-2.35,1.28l-0.49,0.34l-1.49,0.85
		c-0.06,0.02-0.17,0.01-0.31-0.04l0.05-0.45l0.13-0.69c-0.01-0.33,0.01-0.6,0.07-0.79l0.04-0.31l0.04-0.4l0.16-1.35l0.08-0.44
		c0.02-0.26,0.03-0.46,0.01-0.58l0.09-0.29c0.02-0.36,0.08-0.8,0.18-1.31l0.04-0.4c0-0.39,0.06-0.81,0.16-1.26
		c0.02-0.26,0.05-0.48,0.07-0.63c0.02-0.16,0.03-0.34,0.04-0.56l0.05-0.63c0.04-0.32,0.09-0.57,0.15-0.77
		c-0.04-0.07-0.02-0.27,0.05-0.59c0.07-0.33,0.1-0.71,0.08-1.14c0.04-0.32,0.09-0.57,0.15-0.77c-0.04-0.07-0.03-0.25,0.02-0.55
		l0.1-0.32l0-0.55l0.13-0.69c0.06-0.37,0.09-0.83,0.11-1.37l0.28-2.19l0.08-0.53L80,37.35c0.02-0.26,0.06-0.53,0.1-0.78l0.06-0.48
		l0.01-0.32l0.12-0.86l0.1-0.61c-0.04-0.07-0.03-0.17,0.01-0.32l0.17-1.58l0.04-0.4l0.08-0.53L80.76,31l0.03-0.57l0.05-0.45
		l0.09-0.29l0.02-0.34l0.21-1.71l0.06-0.48l0.06-0.39l0.03-0.37l0.17-1.58c0.06-0.37,0.09-0.66,0.1-0.87l0.14-0.92l0.06-0.48
		l0.06-0.48l0.12-1.42l0.08-0.53l0.09-0.56l-0.04-0.16c0.11-0.35,0.16-0.75,0.14-1.18l0.06-0.48l0.15-1.24l0.16-1.26l0.13-1.27
		l0.1-0.61l0.21-1.71l0.11-0.55c0.02-0.26,0.05-0.53,0.07-0.79c0.02-0.75,0.13-1.74,0.34-2.95c-0.02-0.06-0.01-0.25,0.03-0.57
		l0.09-0.29l0.04-0.4c-0.04-0.07-0.03-0.18,0.01-0.32l0.34-2.58l0.01-0.58L84.32,1.98z"/>
	<path class="st6" d="M85,1.98l2.44,0.76c0.18,0.11,0.4,0.21,0.68,0.3c0.27,0.09,0.54,0.2,0.81,0.34l0.82,0.26l0.43,0.22l1.12,0.35
		l0.12,0.09l2.42,0.84c0.36,0.23,0.79,0.39,1.3,0.49l0.96,0.39l-0.62,2.17l0.01,0.24l-0.89,3.13l-0.01,0.32l-0.39,1.25l-0.09,0.47
		l-0.41,1.33l-0.09,0.56l-0.84,2.97c0.04,0.07,0.03,0.18-0.01,0.32l-2.66,9.81l-0.02,0.34l-0.87,2.96l-0.1,0.61l-0.85,3l0.01,0.24
		l-0.44,1.41l-0.05,0.63l3.86-2.2l0.3-0.23l1.07-0.54l0.41-0.28c0.09-0.09,0.32-0.21,0.7-0.36c0.1-0.03,0.23-0.08,0.36-0.18
		c0.14-0.09,0.28-0.19,0.43-0.3l1.05-0.57c0.3-0.22,0.7-0.44,1.2-0.67c0.61-0.41,1.17-0.72,1.66-0.94c0.27-0.19,0.51-0.33,0.71-0.42
		c0.38-0.15,0.77-0.39,1.18-0.71l0.46-0.18l-0.51,2.2l0.01,0.24l-0.23,0.74l-0.02,0.26l-0.67,2.7c-0.02,0.26-0.1,0.59-0.22,0.98
		l-0.15,0.68l-2.97,1.2l-0.36,0.12c-0.11,0.03-0.32,0.12-0.65,0.29c-0.07,0.04-0.2,0.07-0.38,0.11l-3.35,1.4l-0.18,1.4
		c0.22,0.28,0.43,0.65,0.62,1.1l0.14,0.1l0.48,0.97l0.19,0.23l0.4,0.77l0.23,0.3l0.93,1.69l0.28,0.41l1.64,2.87l0.17,0.2l1.19,2.18
		l0.14,0.1l0.28,0.58l0.28,0.41c0.06,0.19,0.06,0.36,0.02,0.5l-1.01,0.33l-0.46,0.18l-0.16,0.04l-0.93,0.38l-0.36,0.12l-1.55,0.48
		c-0.07,0.1-0.25,0.18-0.54,0.24l-0.37,0.15l-0.39,0.11l-0.52,0.16l-0.67,0.29l-0.24,0.01l-0.27-0.99l-0.21-0.65l-0.09-0.17
		l-0.43-1.51l-0.18-0.46l-0.11-0.38l-0.43-1.51c-0.23-0.5-0.38-0.98-0.45-1.45l-0.18-0.44l-0.76-2.51l-0.18-0.46l-0.94-3.24
		l-0.15-0.28l-0.61-0.1c-0.19,0.43-0.37,0.99-0.53,1.7l-0.25,0.8c-0.02,0.38-0.15,0.84-0.37,1.37l-0.05,0.45l-0.49,1.57l-0.04,0.4
		l-0.41,1.33l0.04,0.16l-0.46,1.49l-0.06,0.48l-0.41,1.33l0,0.18l-0.53,1.7l-2.35,1.28l-0.49,0.34l-1.49,0.85
		c-0.06,0.02-0.17,0.01-0.31-0.04l0.05-0.45l0.13-0.69c-0.01-0.33,0.01-0.6,0.07-0.79l0.04-0.31l0.04-0.4l0.16-1.35l0.08-0.44
		c0.02-0.26,0.03-0.46,0.01-0.58l0.09-0.29c0.02-0.36,0.08-0.8,0.18-1.31l0.04-0.4c0-0.39,0.06-0.81,0.16-1.26
		c0.02-0.26,0.05-0.48,0.07-0.63c0.02-0.16,0.03-0.34,0.04-0.56l0.05-0.63c0.04-0.32,0.09-0.57,0.15-0.77
		c-0.04-0.07-0.02-0.27,0.05-0.59c0.07-0.33,0.1-0.71,0.08-1.14c0.04-0.32,0.09-0.57,0.15-0.77c-0.04-0.07-0.03-0.25,0.02-0.55
		l0.1-0.32l0-0.55l0.13-0.69c0.06-0.37,0.09-0.83,0.11-1.37l0.28-2.19l0.08-0.53l0.21-1.71c0.02-0.26,0.06-0.53,0.1-0.78l0.06-0.48
		l0.01-0.32l0.12-0.86l0.1-0.61c-0.04-0.07-0.03-0.17,0.01-0.32l0.17-1.58l0.04-0.4l0.08-0.53L81.44,31l0.03-0.57l0.05-0.45
		l0.09-0.29l0.02-0.34l0.21-1.71l0.06-0.48l0.06-0.39l0.03-0.37l0.17-1.58c0.06-0.37,0.09-0.66,0.1-0.87l0.14-0.92l0.06-0.48
		l0.06-0.48l0.12-1.42l0.08-0.53l0.09-0.56l-0.04-0.16c0.11-0.35,0.16-0.75,0.14-1.18l0.06-0.48l0.15-1.24l0.16-1.26l0.13-1.27
		l0.1-0.61l0.21-1.71l0.11-0.55c0.02-0.26,0.05-0.53,0.07-0.79c0.02-0.75,0.13-1.74,0.34-2.95c-0.02-0.06-0.01-0.25,0.03-0.57
		l0.09-0.29l0.04-0.4C84.4,6.04,84.4,5.94,84.45,5.8l0.34-2.58l0.01-0.58L85,1.98z"/>
	<path class="st1" d="M110.4,8.45c12.3,0.54,18.57,6.47,18.81,17.77l-0.84,6.62c-4.2,7.93-10.96,10.9-20.26,8.91
		c-0.29,0.48-0.52,1.1-0.68,1.84c-0.16,0.37-0.32,0.85-0.45,1.43l-0.14,0.23l-0.3,0.91l-0.12,0.26l-0.06,0.41
		c-0.06,0.05-0.11,0.16-0.13,0.35l-0.74,2.09l-0.16,0.57l-0.16,0.51l-0.14,0.43c-0.26,0.66-0.46,1.27-0.59,1.83l-0.3,0.74
		l-0.17,0.59l-0.6,1.85c-0.31,0.07-0.69,0.07-1.15,0.01l-0.26,0.05l-0.95-0.05l-0.54,0.01c-0.24-0.03-0.53-0.05-0.87-0.04
		l-0.36-0.05l-0.62,0.03l-0.78-0.02c-0.34,0.01-0.74-0.02-1.2-0.08l0.3-2.15c-0.03-0.19-0.02-0.42,0.01-0.7l0.29-2.07l-0.08-0.26
		l0.41-2.92l-0.02-0.45l0.35-2.48l-0.04-0.29l0.38-2.73l-0.04-0.29l0.36-2.56l0.01-0.7l0.27-1.9l0.03-0.78l0.35-2.48l0-0.62
		l0.32-2.31c-0.02-0.25-0.01-0.54,0.04-0.87l0.6-5.09c-0.02-0.25-0.01-0.54,0.04-0.89l0.29-2.04l0.01-0.7l0.37-2.67
		c-0.05-0.42-0.02-0.85,0.1-1.31l0.24-1.71l-0.05-0.26L101.92,9c0.43-0.11,0.96-0.17,1.6-0.2l0.18-0.09l0.71-0.07l0.37-0.03
		l0.34-0.04l0.99-0.03l0.34-0.04l0.7-0.01c0.06-0.05,0.18-0.06,0.34-0.04l0.9-0.04l0.33,0.05c0.52,0.02,0.96,0.02,1.32,0.02
		L110.4,8.45z M121.85,30.02c0.75-4.99-2.07-7.96-8.47-8.91c-0.19,0.39-0.32,0.89-0.41,1.52l-0.25,1.2l-0.12,0.24l-0.22,0.95
		l-0.25,1.17l-0.16,0.51l-0.11,0.77l-0.19,0.76l-0.17,0.6l-0.26,1.09l-0.16,0.51l-0.31,1.61l-0.18,0.68l-0.13,0.35l-0.07,0.52
		l-0.24,1.09l-0.17,0.59C116.24,36.5,120.2,34.75,121.85,30.02z"/>
	<path class="st7" d="M111.08,8.45c12.3,0.54,18.57,6.47,18.81,17.77l-0.84,6.62c-4.2,7.93-10.96,10.9-20.26,8.91
		c-0.29,0.48-0.52,1.1-0.68,1.84c-0.16,0.37-0.32,0.85-0.45,1.43l-0.14,0.23l-0.3,0.91l-0.12,0.26l-0.06,0.41
		c-0.06,0.05-0.11,0.16-0.13,0.35l-0.74,2.09l-0.16,0.57l-0.16,0.51l-0.14,0.43c-0.26,0.66-0.46,1.27-0.59,1.83l-0.3,0.74
		l-0.17,0.59l-0.6,1.85c-0.31,0.07-0.69,0.07-1.15,0.01l-0.26,0.05l-0.95-0.05l-0.54,0.01c-0.24-0.03-0.53-0.05-0.87-0.04
		l-0.36-0.05l-0.62,0.03l-0.78-0.02c-0.34,0.01-0.74-0.02-1.2-0.08l0.3-2.15c-0.03-0.19-0.02-0.42,0.01-0.7l0.29-2.07l-0.08-0.26
		l0.41-2.92l-0.02-0.45l0.35-2.48l-0.04-0.29l0.38-2.73l-0.04-0.29l0.36-2.56l0.01-0.7l0.27-1.9l0.03-0.78l0.35-2.48l0-0.62
		l0.32-2.31c-0.02-0.25-0.01-0.54,0.04-0.87l0.6-5.09c-0.02-0.25-0.01-0.54,0.04-0.89l0.29-2.04l0.01-0.7l0.37-2.67
		c-0.05-0.42-0.02-0.85,0.1-1.31l0.24-1.71l-0.05-0.26L102.61,9c0.43-0.11,0.96-0.17,1.6-0.2l0.18-0.09l0.71-0.07l0.37-0.03
		l0.34-0.04l0.99-0.03l0.34-0.04l0.7-0.01c0.06-0.05,0.18-0.06,0.34-0.04l0.9-0.04l0.33,0.05c0.52,0.02,0.96,0.02,1.32,0.02
		L111.08,8.45z M122.53,30.02c0.75-4.99-2.07-7.96-8.47-8.91c-0.19,0.39-0.32,0.89-0.41,1.52l-0.25,1.2l-0.12,0.24l-0.22,0.95
		l-0.25,1.17l-0.16,0.51l-0.11,0.77l-0.19,0.76l-0.17,0.6l-0.26,1.09l-0.16,0.51l-0.31,1.61l-0.18,0.68l-0.13,0.35l-0.07,0.52
		l-0.24,1.09l-0.17,0.59C116.92,36.5,120.88,34.75,122.53,30.02z"/>
	<path class="st1" d="M121.39,48.22c-2-8.12,0.28-13.4,6.84-15.83c5.82-1.15,9.87,1.17,12.13,6.96c0.19,0.48,0.53,1.89,1.03,4.23
		l-1.25,0.36l-0.58,0.17l-0.58,0.17l-0.58,0.17l-0.5,0.17l-0.75,0.19l-0.31,0.14l-0.67,0.17l-1.84,0.53
		c-0.43,0.17-0.98,0.33-1.67,0.47l-0.83,0.22l-0.58,0.17l-0.47,0.14l-0.5,0.17l-1.64,0.58c-0.37,3.15,0.72,5.04,3.28,5.65
		c2.97-0.18,5.85-1.36,8.65-3.53l0.19,1.86v0.61l0.11,0.83l-0.03,0.36l0.19,2.14c-0.2,0.19-0.49,0.39-0.86,0.61l-1.2,0.53l-0.5,0.17
		l-1.42,0.44c-0.22,0.04-0.5,0.1-0.83,0.19l-0.25,0.06l-0.92,0.28l-3.45,0.5l-1.06-0.03C125.88,56.88,122.83,53.59,121.39,48.22z
		 M134.07,40.12c-0.78-2.24-2.42-2.98-4.92-2.2c-1.39,1.43-1.7,3.3-0.92,5.62l6.45-2.03L134.07,40.12z"/>
	<path class="st8" d="M122.07,48.22c-2-8.12,0.28-13.4,6.84-15.83c5.82-1.15,9.87,1.17,12.13,6.96c0.19,0.48,0.53,1.89,1.03,4.23
		l-1.25,0.36l-0.58,0.17l-0.58,0.17l-0.58,0.17l-0.5,0.17l-0.75,0.19l-0.31,0.14l-0.67,0.17L135,45.63
		c-0.43,0.17-0.98,0.33-1.67,0.47l-0.83,0.22l-0.58,0.17l-0.47,0.14l-0.5,0.17l-1.64,0.58c-0.37,3.15,0.72,5.04,3.28,5.65
		c2.97-0.18,5.85-1.36,8.65-3.53l0.19,1.86v0.61l0.11,0.83l-0.03,0.36l0.19,2.14c-0.2,0.19-0.49,0.39-0.86,0.61l-1.2,0.53l-0.5,0.17
		l-1.42,0.44c-0.22,0.04-0.5,0.1-0.83,0.19l-0.25,0.06l-0.92,0.28l-3.45,0.5l-1.06-0.03C126.56,56.88,123.51,53.59,122.07,48.22z
		 M134.75,40.12c-0.78-2.24-2.42-2.98-4.92-2.2c-1.39,1.43-1.7,3.3-0.92,5.62l6.45-2.03L134.75,40.12z"/>
	<path class="st1" d="M158.52,26.17l0.5,0.03c0.02,0.35-0.03,0.71-0.14,1.08l-0.19,1l-0.11,0.5l-0.17,0.81l-0.03,0.28
		c-0.06,0.06-0.08,0.15-0.08,0.28l-0.19,1.03l-0.08,0.33l-0.11,0.36l-0.11,0.72c-0.11,0.3-0.18,0.63-0.19,1
		c-0.11,0.33-0.2,0.77-0.28,1.31l-0.08,0.22c-0.02,0.28-0.08,0.61-0.19,1l-0.03,0.22l-0.17,0.7c-0.06,0.24-0.09,0.48-0.11,0.72
		l-0.17,0.5l-0.11,0.5l-0.08,0.58c-0.07,0.28-0.11,0.52-0.11,0.72c-0.06,0.04-0.09,0.2-0.11,0.5L156.07,41
		c-0.07,0.24-0.14,0.44-0.19,0.58c-0.02,0.3-0.08,0.63-0.19,1l-0.08,0.5l-0.11,0.5l-0.31,1.45l-0.08,0.42l-0.08,0.31
		c-0.02,0.28-0.08,0.61-0.19,1l-0.31,1.59l-0.08,0.36l-0.11,0.42v0.28l-0.19,0.58l-0.08,0.58l-0.11,0.64l-0.11,0.44l-0.28,1.2v0.31
		c-0.11,0.24-0.18,0.55-0.19,0.92l-0.08,0.36c-0.06,0.15-0.09,0.34-0.11,0.58l-0.17,0.5l-0.11,0.58l-0.72-1.22l-0.14-0.14
		c-0.5-0.89-0.97-1.67-1.42-2.34l-0.11-0.28c-0.41-0.56-0.75-1.11-1.03-1.67l-0.11-0.14l-0.14-0.31l-0.53-0.83l-0.22-0.28
		l-1.53-2.64l-0.14-0.14l-0.67-1.2l-0.19-0.31l0.06,0.44L146,45.7c0.09,0.3,0.13,0.55,0.11,0.75l0.06,0.28l0.06,0.31
		c0.04,0.39,0.07,0.68,0.11,0.86l0.06,0.31l0.19,1.61c0.04,0.24,0.08,0.41,0.14,0.5l-0.03,0.31c0.09,0.19,0.13,0.43,0.11,0.72
		c0.07,0.33,0.12,0.72,0.14,1.17l0.14,0.45l-0.03,0.28l0.22,1.47c0.07,0.3,0.13,0.69,0.17,1.17l0.11,0.67l0.03,0.5l-0.86,0.11
		l-0.22-0.03l-1.25,0.17l-0.42,0.03h-0.31l-0.36,0.06c-0.83,0.09-1.54,0.15-2.11,0.17l-0.36,0.06l-0.44,0.06l-0.03-0.81l-0.06-0.5
		l-0.03-0.53l-0.06-0.5c-0.02-0.43-0.03-0.79-0.03-1.08l-0.06-0.14c-0.02-0.5-0.02-0.89,0-1.17c-0.09-0.35-0.12-0.79-0.08-1.31
		l-0.06-0.53l-0.06-0.28l-0.08-2.62l-0.06-0.17l0.03-0.5c-0.06-0.06-0.09-0.21-0.1-0.47c-0.01-0.26,0-0.54,0.01-0.83l-0.06-0.14
		l0.03-0.45l-0.08-0.22l0.03-0.5c-0.04-0.15-0.05-0.34-0.03-0.58l-0.06-0.53L140.33,42v-0.28l-0.06-0.31l0.03-0.5
		c-0.07-0.35-0.09-0.79-0.06-1.31l-0.06-0.53l-0.06-0.28l0.03-0.45l-0.08-0.22v-1l-0.03-0.81l-0.06-0.53l-0.06-0.36
		c0.02-0.37,0-0.85-0.06-1.45v-0.22l-0.03-0.81l-0.06-0.5l-0.03-0.5v-0.31c-0.02-0.39-0.05-0.72-0.08-1v-0.31l-0.08-1.03l0.03-0.36
		l-0.06-0.36l-0.03-0.78c0.28,0.24,0.55,0.59,0.81,1.06l0.75,0.97l0.14,0.22c0.18,0.2,0.39,0.48,0.61,0.83l0.53,0.75
		c0.09,0.15,0.25,0.35,0.47,0.61l0.33,0.53l0.22,0.31l0.72,0.97l0.75,1.06l0.28,0.31l0.67,0.97l0.47,0.61
		c0.19,0.3,0.34,0.52,0.47,0.67l0.95,1.36c0.19,0.24,0.35,0.44,0.5,0.61l1,1.42l0.28,0.39c0.22,0.3,0.4,0.52,0.53,0.67l0.75,1.06
		l0.33,0.47l0.25-4.73c0.07-0.37,0.12-0.85,0.14-1.45l0.25-4.4l0.08-0.44l0.28-5.29c0.35-0.13,0.72-0.2,1.11-0.22
		c0.3-0.09,0.71-0.17,1.25-0.22c0.28-0.04,0.64-0.12,1.08-0.25l0.31,0.03l0.72-0.19l0.36-0.06
		C157.59,26.39,158.11,26.3,158.52,26.17z"/>
	<path class="st9" d="M159.2,26.17l0.5,0.03c0.02,0.35-0.03,0.71-0.14,1.08l-0.19,1l-0.11,0.5l-0.17,0.81l-0.03,0.28
		c-0.06,0.06-0.08,0.15-0.08,0.28l-0.19,1.03l-0.08,0.33l-0.11,0.36l-0.11,0.72c-0.11,0.3-0.18,0.63-0.19,1
		c-0.11,0.33-0.2,0.77-0.28,1.31l-0.08,0.22c-0.02,0.28-0.08,0.61-0.19,1l-0.03,0.22l-0.17,0.7c-0.06,0.24-0.09,0.48-0.11,0.72
		l-0.17,0.5l-0.11,0.5l-0.08,0.58c-0.07,0.28-0.11,0.52-0.11,0.72c-0.06,0.04-0.09,0.2-0.11,0.5L156.76,41
		c-0.07,0.24-0.14,0.44-0.19,0.58c-0.02,0.3-0.08,0.63-0.19,1l-0.08,0.5l-0.11,0.5l-0.31,1.45l-0.08,0.42l-0.08,0.31
		c-0.02,0.28-0.08,0.61-0.19,1l-0.31,1.59l-0.08,0.36L155,49.12v0.28l-0.19,0.58l-0.08,0.58l-0.11,0.64l-0.11,0.44l-0.28,1.2v0.31
		c-0.11,0.24-0.18,0.55-0.19,0.92l-0.08,0.36c-0.06,0.15-0.09,0.34-0.11,0.58l-0.17,0.5l-0.11,0.58l-0.72-1.22l-0.14-0.14
		c-0.5-0.89-0.97-1.67-1.42-2.34l-0.11-0.28c-0.41-0.56-0.75-1.11-1.03-1.67l-0.11-0.14l-0.14-0.31l-0.53-0.83l-0.22-0.28
		l-1.53-2.64l-0.14-0.14l-0.67-1.2l-0.19-0.31l0.06,0.44l0.03,0.64c0.09,0.3,0.13,0.55,0.11,0.75l0.06,0.28l0.06,0.31
		c0.04,0.39,0.07,0.68,0.11,0.86l0.06,0.31l0.19,1.61c0.04,0.24,0.08,0.41,0.14,0.5l-0.03,0.31c0.09,0.19,0.13,0.43,0.11,0.72
		c0.07,0.33,0.12,0.72,0.14,1.17l0.14,0.45l-0.03,0.28l0.22,1.47c0.07,0.3,0.13,0.69,0.17,1.17l0.11,0.67l0.03,0.5l-0.86,0.11
		l-0.22-0.03l-1.25,0.17l-0.42,0.03h-0.31l-0.36,0.06c-0.83,0.09-1.54,0.15-2.11,0.17l-0.36,0.06l-0.44,0.06l-0.03-0.81l-0.06-0.5
		l-0.03-0.53l-0.06-0.5c-0.02-0.43-0.03-0.79-0.03-1.08l-0.06-0.14c-0.02-0.5-0.02-0.89,0-1.17c-0.09-0.35-0.12-0.79-0.08-1.31
		l-0.06-0.53l-0.06-0.28l-0.08-2.62l-0.06-0.17l0.03-0.5c-0.06-0.06-0.09-0.21-0.1-0.47c-0.01-0.26,0-0.54,0.01-0.83l-0.06-0.14
		l0.03-0.45l-0.08-0.22l0.03-0.5c-0.04-0.15-0.05-0.34-0.03-0.58l-0.06-0.53L141.01,42v-0.28l-0.06-0.31l0.03-0.5
		c-0.07-0.35-0.09-0.79-0.06-1.31l-0.06-0.53l-0.06-0.28l0.03-0.45l-0.08-0.22v-1l-0.03-0.81l-0.06-0.53l-0.06-0.36
		c0.02-0.37,0-0.85-0.06-1.45v-0.22l-0.03-0.81l-0.06-0.5l-0.03-0.5v-0.31c-0.02-0.39-0.05-0.72-0.08-1v-0.31l-0.08-1.03l0.03-0.36
		l-0.06-0.36l-0.03-0.78c0.28,0.24,0.55,0.59,0.81,1.06l0.75,0.97l0.14,0.22c0.18,0.2,0.39,0.48,0.61,0.83l0.53,0.75
		c0.09,0.15,0.25,0.35,0.47,0.61l0.33,0.53l0.22,0.31l0.72,0.97l0.75,1.06l0.28,0.31l0.67,0.97l0.47,0.61
		c0.19,0.3,0.34,0.52,0.47,0.67l0.95,1.36c0.19,0.24,0.35,0.44,0.5,0.61l1,1.42l0.28,0.39c0.22,0.3,0.4,0.52,0.53,0.67l0.75,1.06
		l0.33,0.47l0.25-4.73c0.07-0.37,0.12-0.85,0.14-1.45l0.25-4.4l0.08-0.44l0.28-5.29c0.35-0.13,0.72-0.2,1.11-0.22
		c0.3-0.09,0.71-0.17,1.25-0.22c0.28-0.04,0.64-0.12,1.08-0.25l0.31,0.03l0.72-0.19l0.36-0.06C158.28,26.39,158.8,26.3,159.2,26.17z
		"/>
	<path class="st1" d="M166.89,30.77h3.48c0,0.43-0.11,0.89-0.33,1.39v0.22l-0.44,1.25l-0.17,0.5l-0.25,1.03l-0.17,0.5l-0.08,0.39
		c-7.99,2.73-10.83,6.66-8.51,11.8c3.77,5.34,7.28,4.86,10.54-1.45l2.7,3c0.17,0.15,0.39,0.39,0.67,0.72
		c0.19,0.2,0.33,0.35,0.45,0.44c0.11,0.2,0.17,0.43,0.17,0.67c-5.19,5.82-11.36,7.07-18.5,3.73c-0.5-0.3-1.04-0.76-1.61-1.39
		l-0.17-0.14c-0.39-0.45-0.89-1.43-1.5-2.95c-1.13-7.47,2.01-13.59,9.43-18.33l2.64-1.03l0.5-0.08L166.89,30.77z"/>
	<path class="st10" d="M167.57,30.77h3.48c0,0.43-0.11,0.89-0.33,1.39v0.22l-0.44,1.25l-0.17,0.5l-0.25,1.03l-0.17,0.5l-0.08,0.39
		c-7.99,2.73-10.83,6.66-8.51,11.8c3.77,5.34,7.28,4.86,10.54-1.45l2.7,3c0.17,0.15,0.39,0.39,0.67,0.72
		c0.19,0.2,0.33,0.35,0.45,0.44c0.11,0.2,0.17,0.43,0.17,0.67c-5.19,5.82-11.36,7.07-18.5,3.73c-0.5-0.3-1.04-0.76-1.61-1.39
		l-0.17-0.14c-0.39-0.45-0.89-1.43-1.5-2.95c-1.13-7.47,2.01-13.59,9.43-18.33l2.64-1.03l0.5-0.08L167.57,30.77z"/>
	<path class="st1" d="M171.8,26.25c-0.98-2.13-0.36-3.99,1.86-5.56c3.21-1.26,5.36-0.58,6.45,2.03c0.61,2.67-0.68,4.43-3.87,5.29
		C174.53,28.19,173.04,27.61,171.8,26.25z M172.47,30.26c0.71,0.07,1.54,0.33,2.5,0.75l1.11,0.28c0.5,0.15,0.94,0.32,1.31,0.5
		l2.98,0.89l0.06,2.2l-0.06,0.39l0.14,1.28l-0.11,0.36c0.13,0.52,0.16,1.14,0.08,1.86l0.14,3.06l-0.06,0.31l0.08,1.42l-0.06,0.22
		l0.11,1.25l-0.08,0.58l0.14,1.25l-0.06,0.67l0.14,3.06l-0.06,0.42l0.14,2.81l-0.08,0.47l0.19,3.26l-0.19,0.22
		c-0.63,0.06-1.34-0.01-2.14-0.19c-1.09-0.22-2.04-0.36-2.84-0.42l-0.64-0.14l-0.44-0.06L172.47,30.26z"/>
	<path class="st11" d="M172.48,26.25c-0.98-2.13-0.36-3.99,1.86-5.56c3.21-1.26,5.36-0.58,6.45,2.03c0.61,2.67-0.68,4.43-3.87,5.29
		C175.21,28.19,173.72,27.61,172.48,26.25z M173.15,30.26c0.71,0.07,1.54,0.33,2.5,0.75l1.11,0.28c0.5,0.15,0.94,0.32,1.31,0.5
		l2.98,0.89l0.06,2.2l-0.06,0.39l0.14,1.28l-0.11,0.36c0.13,0.52,0.16,1.14,0.08,1.86l0.14,3.06l-0.06,0.31l0.08,1.42l-0.06,0.22
		l0.11,1.25l-0.08,0.58l0.14,1.25l-0.06,0.67l0.14,3.06l-0.06,0.42l0.14,2.81l-0.08,0.47l0.19,3.26l-0.19,0.22
		c-0.63,0.06-1.34-0.01-2.14-0.19c-1.09-0.22-2.04-0.36-2.84-0.42l-0.64-0.14l-0.44-0.06L173.15,30.26z"/>
	<path class="st1" d="M186.08,6.82c0.52,0,1.17,0.11,1.94,0.33l0.26,0.02l0.75,0.23c0.32,0.08,0.69,0.14,1.11,0.19l0.29,0.09
		l1.32,0.26l0.31,0.12c0.32,0.02,0.66,0.1,1,0.25l1.72,0.29l0.37,0.11l0.49,0.12c-0.06,0.58-0.2,1.26-0.41,2.03l-0.26,0.85
		l-0.09,0.38l-0.58,2.09l-0.11,0.37l-0.11,0.37l-0.12,0.4c-0.13,0.35-0.24,0.76-0.35,1.23c-0.13,0.29-0.24,0.65-0.32,1.06
		c-0.2,0.46-0.35,1.03-0.46,1.69c-0.08,0.27-0.16,0.52-0.23,0.77c-0.07,0.37-0.21,0.78-0.41,1.24c-0.02,0.25-0.09,0.52-0.22,0.83
		c-0.03,0.36-0.15,0.77-0.35,1.23l-0.48,1.77l-0.11,0.46l-0.31,0.84c-0.04,0.38-0.14,0.76-0.32,1.15c-0.08,0.32-0.13,0.59-0.15,0.8
		c-0.05,0.04-0.1,0.13-0.13,0.25c-0.04,0.12-0.06,0.24-0.07,0.34c-0.01,0.1-0.05,0.22-0.11,0.35c-0.06,0.13-0.1,0.29-0.12,0.5
		c-0.2,0.52-0.39,1.19-0.58,2l-0.1,0.32l-0.11,0.37l-0.31,1.01l-0.04,0.31l-0.56,1.93c-0.22,0.67-0.37,1.23-0.46,1.69l-0.11,0.37
		c-0.09,0.36-0.23,0.77-0.43,1.24l-0.13,0.63L186.87,40c-0.16,0.46-0.24,0.79-0.25,1l-0.57,1.86l-0.11,0.46l-0.43,1.53l-0.1,0.23
		l-0.27,1.08c-0.08,0.25-0.13,0.44-0.16,0.58c-0.03,0.14-0.08,0.28-0.15,0.44c-0.07,0.15-0.11,0.33-0.13,0.54l-0.11,0.37l-0.44,1.55
		l-0.11,0.46l-0.31,0.84l-0.14,0.45l-0.01,0.23l-1,3.39l-0.13,0.63l-1.16-0.09c-0.36-0.15-0.8-0.27-1.31-0.37l-1.55-0.35l-0.22-0.04
		l0.14-1.79l0.17-0.85l0.29-1.72l0.04-0.31l0.1-0.32l0.06-0.68l0.14-0.86c0.04-0.38,0.13-0.8,0.27-1.26
		c-0.02-0.32,0.04-0.68,0.18-1.08c0.04-0.53,0.15-1.17,0.33-1.94l0.06-0.56l0.16-1l0.6-3.42c0.02-0.32,0.06-0.55,0.12-0.69
		l0.09-0.96l0.09-0.2c0.04-0.32,0.1-0.69,0.19-1.11l0.01-0.23c0.03-0.42,0.13-0.93,0.29-1.54c0.03-0.42,0.1-0.94,0.21-1.56l0.1-0.23
		c0.03-0.42,0.1-0.94,0.21-1.56l0.11-0.37l0.07-0.71c0.1-0.57,0.2-1.2,0.31-1.88l0.12-0.69c0.12-0.78,0.24-1.45,0.35-2.02l0.03-0.49
		l0.09-0.2l0.08-0.64l0.09-0.21c0.03-0.44,0.1-1.01,0.21-1.74l0.12-0.6l0.2-1.25l0.13-0.63l0.18-1.25c0.09-0.36,0.16-0.77,0.2-1.22
		l0.08-0.18l0.08-0.85l0.1-0.23l0.04-0.71l0.15-0.68l0.11-0.46l0.07-0.79c0.11-0.57,0.21-1.06,0.3-1.48l0.02-0.37
		c0.14-0.52,0.25-1.17,0.33-1.96l0.09-0.29c0.1-0.57,0.17-1.15,0.24-1.73L186.08,6.82z"/>
	<path class="st12" d="M186.76,6.82c0.52,0,1.17,0.11,1.94,0.33l0.26,0.02l0.75,0.23c0.32,0.08,0.69,0.14,1.11,0.19l0.29,0.09
		l1.32,0.26l0.31,0.12c0.32,0.02,0.66,0.1,1,0.25l1.72,0.29l0.37,0.11l0.49,0.12c-0.06,0.58-0.2,1.26-0.41,2.03l-0.26,0.85
		l-0.09,0.38l-0.58,2.09l-0.11,0.37l-0.11,0.37l-0.12,0.4c-0.13,0.35-0.24,0.76-0.35,1.23c-0.13,0.29-0.24,0.65-0.32,1.06
		c-0.2,0.46-0.35,1.03-0.46,1.69c-0.08,0.27-0.16,0.52-0.23,0.77c-0.07,0.37-0.21,0.78-0.41,1.24c-0.02,0.25-0.09,0.52-0.22,0.83
		c-0.03,0.36-0.15,0.77-0.35,1.23l-0.48,1.77l-0.11,0.46l-0.31,0.84c-0.04,0.38-0.14,0.76-0.32,1.15c-0.08,0.32-0.13,0.59-0.15,0.8
		c-0.05,0.04-0.1,0.13-0.13,0.25c-0.04,0.12-0.06,0.24-0.07,0.34c-0.01,0.1-0.05,0.22-0.11,0.35c-0.06,0.13-0.1,0.29-0.12,0.5
		c-0.2,0.52-0.39,1.19-0.58,2l-0.1,0.32l-0.11,0.37l-0.31,1.01l-0.04,0.31l-0.56,1.93c-0.22,0.67-0.37,1.23-0.46,1.69l-0.11,0.37
		c-0.09,0.36-0.23,0.77-0.43,1.24l-0.13,0.63L187.55,40c-0.16,0.46-0.24,0.79-0.25,1l-0.57,1.86l-0.11,0.46l-0.43,1.53l-0.1,0.23
		l-0.27,1.08c-0.08,0.25-0.13,0.44-0.16,0.58c-0.03,0.14-0.08,0.28-0.15,0.44c-0.07,0.15-0.11,0.33-0.13,0.54l-0.11,0.37l-0.44,1.55
		l-0.11,0.46l-0.31,0.84l-0.14,0.45l-0.01,0.23l-1,3.39l-0.13,0.63l-1.16-0.09c-0.36-0.15-0.8-0.27-1.31-0.37l-1.55-0.35l-0.22-0.04
		l0.14-1.79l0.17-0.85l0.29-1.72l0.04-0.31l0.1-0.32l0.06-0.68l0.14-0.86c0.04-0.38,0.13-0.8,0.27-1.26
		c-0.02-0.32,0.04-0.68,0.18-1.08c0.04-0.53,0.15-1.17,0.33-1.94l0.06-0.56l0.16-1l0.6-3.42c0.02-0.32,0.06-0.55,0.12-0.69
		l0.09-0.96l0.09-0.2c0.04-0.32,0.1-0.69,0.19-1.11l0.01-0.23c0.03-0.42,0.13-0.93,0.29-1.54c0.03-0.42,0.1-0.94,0.21-1.56l0.1-0.23
		c0.03-0.42,0.1-0.94,0.21-1.56l0.11-0.37l0.07-0.71c0.1-0.57,0.2-1.2,0.31-1.88l0.12-0.69c0.12-0.78,0.24-1.45,0.35-2.02l0.03-0.49
		l0.09-0.2l0.08-0.64l0.09-0.21c0.03-0.44,0.1-1.01,0.21-1.74l0.12-0.6l0.2-1.25l0.13-0.63l0.18-1.25c0.09-0.36,0.16-0.77,0.2-1.22
		l0.08-0.18l0.08-0.85l0.1-0.23l0.04-0.71l0.15-0.68l0.11-0.46l0.07-0.79c0.11-0.57,0.21-1.06,0.3-1.48l0.02-0.37
		c0.14-0.52,0.25-1.17,0.33-1.96l0.09-0.29c0.1-0.57,0.17-1.15,0.24-1.73L186.76,6.82z"/>
</g>
</svg>
